<?xml version="1.0" encoding="iso-8859-1"?>
<!-- Generator: Adobe Illustrator 23.0.1, SVG Export Plug-In . SVG Version: 6.00 Build 0)  -->
<svg version="1.1" id="Capa_1" xmlns="http://www.w3.org/2000/svg" xmlns:xlink="http://www.w3.org/1999/xlink" x="0px" y="0px"
	 viewBox="0 0 792 612" style="enable-background:new 0 0 792 612;" xml:space="preserve">
<g>
	<path style="fill:#66E2E7;" d="M600.078,190.613"/>
	<path style="fill:#606060;" d="M581.703,383.355c-5.523,0-10,4.481-10,10c0,75.375-61.32,136.696-136.695,136.696
		S298.312,468.73,298.312,393.355v-20.984l55.52-102.121c39.875-27.859,58.832-78.039,52.809-139.309
		c14.113-4.644,24.332-17.941,24.332-33.586c0-19.496-15.86-35.355-35.356-35.355c-19.492,0-35.355,15.859-35.355,35.355
		c0,16.379,11.199,30.188,26.343,34.188c5.836,55.883-11.078,100.891-46.992,124.195c-31.41,20.379-72.445,20.637-104.539,0.649
		c-37.148-23.133-55.347-68.391-50.547-124.891c15.063-4.047,26.184-17.816,26.184-34.141c0-19.496-15.859-35.355-35.352-35.355
		C155.863,62,140,77.859,140,97.355c0,15.707,10.301,29.051,24.5,33.641c-5.102,63.695,16.469,115.246,59.977,142.356l53.835,99.019
		v20.984c0,41.696,16.344,81,46.02,110.676c29.676,29.676,68.984,46.02,110.676,46.02c41.691,0,80.996-16.344,110.672-46.02
		c29.679-29.676,46.023-68.98,46.023-110.676C591.703,387.836,587.227,383.355,581.703,383.355L581.703,383.355z M380.262,97.355
		c0-8.468,6.886-15.355,15.355-15.355c8.465,0,15.356,6.887,15.356,15.355c0,8.465-6.891,15.356-15.356,15.356
		C387.148,112.711,380.262,105.82,380.262,97.355L380.262,97.355z M175.355,82c8.465,0,15.356,6.887,15.356,15.355
		c0,8.465-6.891,15.356-15.356,15.356c-8.468,0-15.355-6.891-15.355-15.356C160,88.887,166.887,82,175.355,82L175.355,82z
		 M322.703,285.637l-34.391,63.254l-33.843-62.25c10.621,3.027,21.574,4.547,32.515,4.547
		C299.066,291.188,311.125,289.324,322.703,285.637L322.703,285.637z M322.703,285.637"/>
	<path style="fill:#00A9D4;" d="M581.703,355.891c-5.523,0-10,4.476-10,10v0.14c0,5.52,4.477,10,10,10c5.524,0,10-4.48,10-10v-0.14
		C591.703,360.367,587.227,355.891,581.703,355.891L581.703,355.891z M581.703,355.891"/>
	<path style="fill:#606060;" d="M652,248.281c0-38.894-31.535-70.539-70.297-70.539c-38.762,0-70.297,31.645-70.297,70.539
		c0,35.492,26.258,64.93,60.297,69.817v20.121c0,5.523,4.477,10,10,10c5.524,0,10-4.477,10-10v-20.121
		C625.742,313.211,652,283.773,652,248.281L652,248.281z M581.703,260.617c-6.754,0-12.246-5.531-12.246-12.336
		c0-6.801,5.492-12.332,12.246-12.332s12.246,5.531,12.246,12.332C593.949,255.086,588.457,260.617,581.703,260.617L581.703,260.617
		z M591.703,297.82v-18.8c12.899-4.231,22.246-16.407,22.246-30.739c0-17.828-14.465-32.332-32.246-32.332
		s-32.246,14.504-32.246,32.332c0,14.332,9.348,26.504,22.246,30.735v18.8c-22.961-4.671-40.297-25.105-40.297-49.535
		c0-27.867,22.563-50.539,50.297-50.539c27.735,0,50.297,22.672,50.297,50.539C632,272.711,614.66,293.148,591.703,297.82
		L591.703,297.82z M591.703,297.82"/>
	<path style="fill:#00A9D4;" d="M434.265,504.298c48.796,0,88.499-31.754,88.499-70.8c0-39.046-39.703-70.799-88.499-70.799
		s-88.499,31.754-88.499,70.799C345.766,472.545,385.469,504.298,434.265,504.298L434.265,504.298z M434.265,398.099
		c28.78,0,53.1,16.213,53.1,35.4c0,19.187-24.32,35.4-53.1,35.4c-28.78,0-53.1-16.213-53.1-35.4
		C381.166,414.312,405.485,398.099,434.265,398.099L434.265,398.099z M434.265,398.099"/>
	<path style="fill:#00A9D4;" d="M451.965,309.599c0,9.775-7.925,17.7-17.7,17.7s-17.7-7.925-17.7-17.7s7.925-17.7,17.7-17.7
		S451.965,299.825,451.965,309.599L451.965,309.599z M451.965,309.599"/>
	<path style="fill:#00A9D4;" d="M375.983,357.513c6.923-6.923,6.923-18.122,0-25.028c-6.923-6.923-18.122-6.923-25.028,0
		c-6.923,6.923-6.923,18.122,0,25.028C357.86,364.436,369.078,364.436,375.983,357.513L375.983,357.513z M375.983,357.513"/>
	<path style="fill:#00A9D4;" d="M517.579,357.513c6.923-6.923,6.923-18.122,0-25.028c-6.923-6.923-18.123-6.923-25.028,0
		c-6.923,6.923-6.923,18.122,0,25.028C499.456,364.436,510.673,364.436,517.579,357.513L517.579,357.513z M517.579,357.513"/>
</g>
</svg>
