<?xml version="1.0" encoding="iso-8859-1"?>
<!-- Generator: Adobe Illustrator 23.0.1, SVG Export Plug-In . SVG Version: 6.00 Build 0)  -->
<svg version="1.1" id="Capa_1" xmlns="http://www.w3.org/2000/svg" xmlns:xlink="http://www.w3.org/1999/xlink" x="0px" y="0px"
	 viewBox="0 0 792 612" style="enable-background:new 0 0 792 612;" xml:space="preserve">
<g>
	<path style="fill:#606060;" d="M520.5,490.832c-4.141,0-7.5,3.359-7.5,7.5V514.5c0,17.922-14.578,32.5-32.5,32.5h-170
		c-17.922,0-32.5-14.578-32.5-32.5V274c0-4.145-3.359-7.5-7.5-7.5c-4.141,0-7.5,3.355-7.5,7.5v240.5c0,26.191,21.309,47.5,47.5,47.5
		h170c26.191,0,47.5-21.309,47.5-47.5v-16.168C528,494.191,524.641,490.832,520.5,490.832L520.5,490.832z M520.5,490.832"/>
	<path style="fill:#606060;" d="M480.531,179H474.5v-12.5c0-9.648-7.852-17.5-17.5-17.5h-36.332v-14h4.832
		c9.648,0,17.5-7.852,17.5-17.5v-50c0-9.648-7.852-17.5-17.5-17.5h-60c-9.648,0-17.5,7.852-17.5,17.5v50
		c0,9.648,7.852,17.5,17.5,17.5h6.168v14H334c-9.648,0-17.5,7.852-17.5,17.5V179h-6c-26.191,0-47.5,21.309-47.5,47.5v15.25
		c0,4.145,3.359,7.5,7.5,7.5c4.141,0,7.5-3.355,7.5-7.5V226.5c0-17.922,14.578-32.5,32.5-32.5h105c4.141,0,7.5-3.355,7.5-7.5
		c0-4.145-3.359-7.5-7.5-7.5h-84v-12.5c0-1.379,1.121-2.5,2.5-2.5h123c1.379,0,2.5,1.121,2.5,2.5V179h-12.355
		c-4.141,0-7.5,3.355-7.5,7.5c0,4.145,3.359,7.5,7.5,7.5h33.386C498.434,194,513,208.566,513,226.469V466c0,4.145,3.359,7.5,7.5,7.5
		s7.5-3.355,7.5-7.5V226.469C528,200.293,506.707,179,480.531,179L480.531,179z M363,117.5v-50c0-1.379,1.121-2.5,2.5-2.5h60
		c1.379,0,2.5,1.121,2.5,2.5v50c0,1.379-1.121,2.5-2.5,2.5h-60C364.121,120,363,118.879,363,117.5L363,117.5z M386.668,149v-14h19
		v14H386.668z M386.668,149"/>
	<path style="fill:#2F7F2D;" d="M345.609,331.648c-0.015,0.063-0.039,0.125-0.054,0.192c-1.7,6.004-2.785,12.258-3.266,18.66H317.5
		c-4.141,0-7.5,3.355-7.5,7.5c0,4.141,3.359,7.5,7.5,7.5h24.785c0.57,7.602,2.008,14.949,4.235,21.832l-20.77,5.938
		c-3.984,1.136-6.289,5.289-5.152,9.269c0.941,3.297,3.945,5.441,7.211,5.441c0.679,0,1.375-0.093,2.062-0.289l22.598-6.461
		c1.343,2.461,2.797,4.825,4.383,7.063c10.128,14.32,23.855,22.207,38.648,22.207c14.785,0,28.512-7.887,38.648-22.203
		c1.582-2.238,3.036-4.606,4.379-7.067l22.602,6.461c0.687,0.2,1.383,0.293,2.066,0.293c3.262,0,6.266-2.148,7.207-5.441
		c1.137-3.984-1.168-8.137-5.148-9.273l-20.774-5.938c2.227-6.879,3.665-14.23,4.235-21.832H473.5c4.141,0,7.5-3.355,7.5-7.5
		c0-4.141-3.359-7.5-7.5-7.5h-24.789c-0.481-6.402-1.566-12.652-3.266-18.66c-0.015-0.063-0.039-0.121-0.054-0.184
		c-0.004-0.008-0.004-0.019-0.008-0.027c-0.211-0.746-0.434-1.488-0.664-2.219l17.398-8.133c3.754-1.754,5.371-6.218,3.617-9.972
		c-1.754-3.75-6.214-5.371-9.968-3.617l-16.786,7.847c-9.847-18.664-25.796-30.031-43.48-30.031
		c-17.684,0-33.633,11.371-43.477,30.031l-16.785-7.847c-3.754-1.754-8.218-0.133-9.972,3.617c-1.754,3.754-0.133,8.218,3.617,9.972
		l17.398,8.133c-0.23,0.735-0.453,1.477-0.664,2.223C345.613,331.637,345.613,331.645,345.609,331.648L345.609,331.648z
		 M395.5,415.5c-9.785,0-19.164-5.637-26.406-15.871c-2.168-3.063-4.059-6.43-5.668-10.02c-0.106-0.273-0.223-0.539-0.356-0.797
		C359.117,379.68,357,369.098,357,358c0-1.375,0.043-2.738,0.109-4.098c9.856,10.039,23.551,15.969,38.391,15.969
		c14.84,0,28.535-5.93,38.391-15.969c0.066,1.36,0.109,2.723,0.109,4.098c0,11.129-2.133,21.734-6.105,30.887
		c-0.118,0.226-0.219,0.461-0.313,0.699c-1.613,3.598-3.504,6.969-5.68,10.043C414.66,409.863,405.281,415.5,395.5,415.5
		L395.5,415.5z M395.5,300.504c14.625,0,28.348,13.105,34.734,32.875c-6.375,13.133-19.738,21.492-34.734,21.492
		c-14.996,0-28.359-8.359-34.734-21.492C367.152,313.605,380.875,300.504,395.5,300.504L395.5,300.504z M395.5,300.504"/>
	<path style="fill:#2F7F2D;" d="M416,327.223c0,4.14-3.359,7.5-7.5,7.5c-4.141,0-7.5-3.36-7.5-7.5c0-4.145,3.359-7.5,7.5-7.5
		C412.641,319.723,416,323.078,416,327.223L416,327.223z M416,327.223"/>
	<path style="fill:#2F7F2D;" d="M339.344,274c0,4.14-3.359,7.5-7.5,7.5c-4.141,0-7.5-3.36-7.5-7.5c0-4.145,3.359-7.5,7.5-7.5
		C335.985,266.5,339.344,269.855,339.344,274L339.344,274z M339.344,274"/>
	<path style="fill:#2F7F2D;" d="M493.482,327.223c0,4.14-3.359,7.5-7.5,7.5c-4.141,0-7.5-3.36-7.5-7.5c0-4.145,3.359-7.5,7.5-7.5
		C490.123,319.723,493.482,323.078,493.482,327.223L493.482,327.223z M493.482,327.223"/>
	<path style="fill:#2F7F2D;" d="M354.344,430.5c0,4.14-3.359,7.5-7.5,7.5c-4.141,0-7.5-3.36-7.5-7.5c0-4.145,3.359-7.5,7.5-7.5
		C350.985,423,354.344,426.355,354.344,430.5L354.344,430.5z M354.344,430.5"/>
	<path style="fill:#2F7F2D;" d="M485.982,384.701c0,4.14-3.359,7.5-7.5,7.5c-4.141,0-7.5-3.36-7.5-7.5c0-4.145,3.359-7.5,7.5-7.5
		C482.623,377.201,485.982,380.556,485.982,384.701L485.982,384.701z M485.982,384.701"/>
	<path style="fill:#2F7F2D;" d="M317.5,384.701c0,4.14-3.359,7.5-7.5,7.5c-4.141,0-7.5-3.36-7.5-7.5c0-4.145,3.359-7.5,7.5-7.5
		C314.141,377.201,317.5,380.556,317.5,384.701L317.5,384.701z M317.5,384.701"/>
	<path style="fill:#2F7F2D;" d="M460.783,285.504c0,4.14-3.359,7.5-7.5,7.5c-4.141,0-7.5-3.36-7.5-7.5c0-4.145,3.359-7.5,7.5-7.5
		C457.424,278.004,460.783,281.359,460.783,285.504L460.783,285.504z M460.783,285.504"/>
	<path style="fill:#2F7F2D;" d="M390,327.223c0,4.14-3.359,7.5-7.5,7.5c-4.141,0-7.5-3.36-7.5-7.5c0-4.145,3.359-7.5,7.5-7.5
		C386.641,319.723,390,323.078,390,327.223L390,327.223z M390,327.223"/>
	<path style="fill:#2F7F2D;" d="M415.249,91c0,10.535-8.546,19.081-19.081,19.081c-10.535,0-19.081-8.546-19.081-19.081
		c0-10.535,8.546-19.081,19.081-19.081C406.703,71.919,415.249,80.465,415.249,91L415.249,91z M415.249,91"/>
</g>
</svg>
