<?xml version="1.0" encoding="utf-8"?>
<!-- Generator: Adobe Illustrator 23.0.1, SVG Export Plug-In . SVG Version: 6.00 Build 0)  -->
<svg version="1.1" id="Capa_1" xmlns="http://www.w3.org/2000/svg" xmlns:xlink="http://www.w3.org/1999/xlink" x="0px" y="0px"
	 viewBox="0 0 792 612" style="enable-background:new 0 0 792 612;" xml:space="preserve">
<style type="text/css">
	.st0{fill:#606060;}
	.st1{fill:#65BE58;}
</style>
<path class="st0" d="M628,66H164c-4.42,0-8,3.58-8,8v32c0,4.42,3.58,8,8,8h8v288h-8c-4.42,0-8,3.58-8,8v128c0,4.42,3.58,8,8,8h464
	c4.42,0,8-3.58,8-8V410c0-4.42-3.58-8-8-8h-8V114h8c4.42,0,8-3.58,8-8V74C636,69.58,632.42,66,628,66L628,66z M268,530h-96v-80h96
	V530z M268,434h-96v-16h96V434z M268,402h-80V237.55c13.16,7.87,30.07,5.08,40-6.61c9.93,11.68,26.84,14.48,40,6.61V402z M220,210
	c0,8.84-7.16,16-16,16c-8.84,0-16-7.16-16-16H220z M188,194v-80h32v80H188z M252,226c-8.84,0-16-7.16-16-16h32
	C268,218.84,260.84,226,252,226L252,226z M268,194h-32v-80h32V194z M508,530H284v-16h224V530z M508,498H284V237.55
	c13.16,7.87,30.07,5.08,40-6.61c6,7.02,14.77,11.06,24,11.06c9.23,0,18-4.04,24-11.06c6,7.02,14.77,11.06,24,11.06
	c9.23,0,18-4.04,24-11.06c6,7.02,14.77,11.06,24,11.06s18-4.04,24-11.06c9.93,11.68,26.84,14.48,40,6.61V498z M316,210
	c0,8.84-7.16,16-16,16s-16-7.16-16-16H316z M284,194v-80h32v80H284z M364,210c0,8.84-7.16,16-16,16s-16-7.16-16-16H364z M332,194
	v-80h32v80H332z M412,210c0,8.84-7.16,16-16,16s-16-7.16-16-16H412z M380,194v-80h32v80H380z M460,210c0,8.84-7.16,16-16,16
	s-16-7.16-16-16H460z M428,194v-80h32v80H428z M492,226c-8.84,0-16-7.16-16-16h32C508,218.84,500.84,226,492,226L492,226z M508,194
	h-32v-80h32V194z M620,530h-96v-80h96V530z M620,434h-96v-16h96V434z M556,210c0,8.84-7.16,16-16,16c-8.84,0-16-7.16-16-16H556z
	 M524,194v-80h32v80H524z M540,242c9.23-0.03,17.98-4.06,24-11.06c9.93,11.68,26.84,14.48,40,6.61V402h-80V237.55
	C528.84,240.43,534.37,241.97,540,242L540,242z M604,210c0,8.84-7.16,16-16,16c-8.84,0-16-7.16-16-16H604z M572,194v-80h32v80H572z
	 M620,98H172V82h448V98z M620,98"/>
<path class="st1" d="M396,345.55c-36,0-64,38.09-64,70.86c0,42.29,46.5,42.29,64,42.29c17.5,0,64,0,64-42.29
	C460,383.64,432.04,345.55,396,345.55L396,345.55z M396,442.7c-39.83,0-48-10.5-48-26.29c0-24.69,22.15-54.86,48-54.86
	c25.85,0,48,30.16,48,54.86C444,432.19,435.83,442.7,396,442.7L396,442.7z M396,442.7"/>
<path class="st1" d="M364,330c0-13.25-10.75-24-24-24c-13.25,0-24,10.75-24,24c0,13.25,10.75,24,24,24
	C353.25,354,364,343.25,364,330L364,330z M332,330c0-4.42,3.58-8,8-8c4.42,0,8,3.58,8,8c0,4.42-3.58,8-8,8
	C335.58,338,332,334.42,332,330L332,330z M332,330"/>
<path class="st1" d="M452,306.7c-13.25,0-24,10.75-24,24s10.75,24,24,24s24-10.75,24-24S465.25,306.7,452,306.7L452,306.7z
	 M452,338.7c-4.42,0-8-3.58-8-8s3.58-8,8-8s8,3.58,8,8S456.42,338.7,452,338.7L452,338.7z M452,338.7"/>
<path class="st1" d="M396,330c13.25,0,24-10.75,24-24c0-13.25-10.75-24-24-24c-13.25,0-24,10.75-24,24
	C372,319.25,382.75,330,396,330L396,330z M396,298c4.42,0,8,3.58,8,8c0,4.42-3.58,8-8,8c-4.42,0-8-3.58-8-8
	C388,301.58,391.58,298,396,298L396,298z M396,298"/>
<path class="st1" d="M484,370c-4.42,0-8,3.58-8,8v16c0,4.42,3.58,8,8,8s8-3.58,8-8v-16C492,373.58,488.42,370,484,370L484,370z
	 M484,370"/>
<path class="st1" d="M239.2,275.6l-32,24c-3.54,2.65-4.25,7.66-1.6,11.2c2.65,3.54,7.66,4.25,11.2,1.6l32-24
	c3.53-2.65,4.25-7.66,1.6-11.2C247.75,273.66,242.73,272.95,239.2,275.6L239.2,275.6z M239.2,275.6"/>
<path class="st1" d="M239.2,315.6l-32,24c-3.54,2.65-4.25,7.66-1.6,11.2c2.65,3.54,7.66,4.25,11.2,1.6l32-24
	c3.53-2.65,4.25-7.66,1.6-11.2C247.75,313.66,242.73,312.95,239.2,315.6L239.2,315.6z M239.2,315.6"/>
<path class="st1" d="M548,314c1.73,0,3.41-0.56,4.8-1.6l32-24c3.53-2.65,4.25-7.66,1.6-11.2c-2.65-3.53-7.66-4.25-11.2-1.6l-32,24
	c-2.75,2.07-3.88,5.66-2.79,8.93C541.5,311.8,544.55,314,548,314L548,314z M548,314"/>
<path class="st1" d="M548,354c1.73,0,3.41-0.56,4.8-1.6l32-24c3.53-2.65,4.25-7.66,1.6-11.2c-2.65-3.53-7.66-4.25-11.2-1.6l-32,24
	c-2.75,2.07-3.88,5.66-2.79,8.93C541.5,351.8,544.55,354,548,354L548,354z M548,354"/>
</svg>
