<?xml version="1.0" encoding="utf-8"?>
<!-- Generator: Adobe Illustrator 23.0.1, SVG Export Plug-In . SVG Version: 6.00 Build 0)  -->
<svg version="1.1" id="Capa_1" xmlns="http://www.w3.org/2000/svg" xmlns:xlink="http://www.w3.org/1999/xlink" x="0px" y="0px"
	 viewBox="0 0 792 612" style="enable-background:new 0 0 792 612;" xml:space="preserve">
<style type="text/css">
	.st0{fill:#606060;}
	.st1{fill:#EB7742;stroke:#EB7742;stroke-miterlimit:10;}
</style>
<path class="st0" d="M628,82H164c-4.42,0-8,3.58-8,8v32c0,4.42,3.58,8,8,8h136v40h-72c-4.42,0-8,3.58-8,8v344c0,4.42,3.58,8,8,8h344
	c4.42,0,8-3.58,8-8V178c0-4.42-3.58-8-8-8h-72v-40h128c4.42,0,8-3.58,8-8V90C636,85.58,632.42,82,628,82L628,82z M308,218
	c4.42,0,8,3.58,8,8s-3.58,8-8,8c-4.42,0-8-3.58-8-8S303.58,218,308,218L308,218z M564,186v328H236V186h64v17.47
	c-11.02,3.89-17.63,15.16-15.66,26.68c1.98,11.52,11.97,19.94,23.66,19.94c11.69,0,21.68-8.42,23.66-19.94
	c1.98-11.52-4.64-22.79-15.66-26.68V186h168v17.47c-11.02,3.89-17.63,15.16-15.66,26.68c1.98,11.52,11.97,19.94,23.66,19.94
	s21.68-8.42,23.66-19.94c1.98-11.52-4.64-22.79-15.66-26.68V186H564z M484,170H316v-40h168V170z M492,218c4.42,0,8,3.58,8,8
	s-3.58,8-8,8s-8-3.58-8-8S487.58,218,492,218L492,218z M620,114H172V98h448V114z M620,114"/>
<path class="st1" d="M356,234h8c4.42,0,8-3.58,8-8s-3.58-8-8-8h-8c-4.42,0-8,3.58-8,8S351.58,234,356,234L356,234z M356,234"/>
<path class="st1" d="M396,234h8c4.42,0,8-3.58,8-8s-3.58-8-8-8h-8c-4.42,0-8,3.58-8,8S391.58,234,396,234L396,234z M396,234"/>
<path class="st1" d="M436,234h8c4.42,0,8-3.58,8-8s-3.58-8-8-8h-8c-4.42,0-8,3.58-8,8S431.58,234,436,234L436,234z M436,234"/>
<path class="st1" d="M404,325.53c-36,0-64,38.09-64,70.86c0,42.29,46.5,42.29,64,42.29s64,0,64-42.29
	C468,363.62,440.04,325.53,404,325.53L404,325.53z M404,422.68c-39.83,0-48-10.5-48-26.29c0-24.69,22.15-54.86,48-54.86
	s48,30.16,48,54.86C452,412.17,443.83,422.68,404,422.68L404,422.68z M404,422.68"/>
<path class="st1" d="M348,330c13.25,0,24-10.75,24-24c0-13.25-10.75-24-24-24c-13.25,0-24,10.75-24,24
	C324,319.25,334.75,330,348,330L348,330z M348,298c4.42,0,8,3.58,8,8c0,4.42-3.58,8-8,8c-4.42,0-8-3.58-8-8
	C340,301.58,343.58,298,348,298L348,298z M348,298"/>
<path class="st1" d="M436,310.68c0,13.25,10.75,24,24,24s24-10.75,24-24s-10.75-24-24-24S436,297.42,436,310.68L436,310.68z
	 M460,302.68c4.42,0,8,3.58,8,8s-3.58,8-8,8s-8-3.58-8-8S455.58,302.68,460,302.68L460,302.68z M460,302.68"/>
<path class="st1" d="M404,310.68c13.25,0,24-10.75,24-24s-10.75-24-24-24s-24,10.75-24,24S390.75,310.68,404,310.68L404,310.68z
	 M404,278.68c4.42,0,8,3.58,8,8s-3.58,8-8,8c-4.42,0-8-3.58-8-8S399.58,278.68,404,278.68L404,278.68z M404,278.68"/>
<path class="st0" d="M492,450H308c-4.42,0-8,3.58-8,8s3.58,8,8,8h184c4.42,0,8-3.58,8-8S496.42,450,492,450L492,450z M492,450"/>
<path class="st0" d="M492,482H308c-4.42,0-8,3.58-8,8s3.58,8,8,8h184c4.42,0,8-3.58,8-8S496.42,482,492,482L492,482z M492,482"/>
<path class="st1" d="M260,218c-4.42,0-8,3.58-8,8v8c0,4.42,3.58,8,8,8c4.42,0,8-3.58,8-8v-8C268,221.58,264.42,218,260,218L260,218z
	 M260,218"/>
<path class="st1" d="M260,258c-4.42,0-8,3.58-8,8v8c0,4.42,3.58,8,8,8c4.42,0,8-3.58,8-8v-8C268,261.58,264.42,258,260,258L260,258z
	 M260,258"/>
<path class="st1" d="M260,298c-4.42,0-8,3.58-8,8v8c0,4.42,3.58,8,8,8c4.42,0,8-3.58,8-8v-8C268,301.58,264.42,298,260,298L260,298z
	 M260,298"/>
<path class="st1" d="M260,338c-4.42,0-8,3.58-8,8v8c0,4.42,3.58,8,8,8c4.42,0,8-3.58,8-8v-8C268,341.58,264.42,338,260,338L260,338z
	 M260,338"/>
<path class="st1" d="M260,378c-4.42,0-8,3.58-8,8v8c0,4.42,3.58,8,8,8c4.42,0,8-3.58,8-8v-8C268,381.58,264.42,378,260,378L260,378z
	 M260,378"/>
<path class="st1" d="M260,418c-4.42,0-8,3.58-8,8v8c0,4.42,3.58,8,8,8c4.42,0,8-3.58,8-8v-8C268,421.58,264.42,418,260,418L260,418z
	 M260,418"/>
<path class="st1" d="M260,458c-4.42,0-8,3.58-8,8v8c0,4.42,3.58,8,8,8c4.42,0,8-3.58,8-8v-8C268,461.58,264.42,458,260,458L260,458z
	 M260,458"/>
<path class="st1" d="M540,242c4.42,0,8-3.58,8-8v-8c0-4.42-3.58-8-8-8c-4.42,0-8,3.58-8,8v8C532,238.42,535.58,242,540,242L540,242z
	 M540,242"/>
<path class="st1" d="M540,282c4.42,0,8-3.58,8-8v-8c0-4.42-3.58-8-8-8c-4.42,0-8,3.58-8,8v8C532,278.42,535.58,282,540,282L540,282z
	 M540,282"/>
<path class="st1" d="M540,322c4.42,0,8-3.58,8-8v-8c0-4.42-3.58-8-8-8c-4.42,0-8,3.58-8,8v8C532,318.42,535.58,322,540,322L540,322z
	 M540,322"/>
<path class="st1" d="M540,362c4.42,0,8-3.58,8-8v-8c0-4.42-3.58-8-8-8c-4.42,0-8,3.58-8,8v8C532,358.42,535.58,362,540,362L540,362z
	 M540,362"/>
<path class="st1" d="M540,402c4.42,0,8-3.58,8-8v-8c0-4.42-3.58-8-8-8c-4.42,0-8,3.58-8,8v8C532,398.42,535.58,402,540,402L540,402z
	 M540,402"/>
<path class="st1" d="M540,442c4.42,0,8-3.58,8-8v-8c0-4.42-3.58-8-8-8c-4.42,0-8,3.58-8,8v8C532,438.42,535.58,442,540,442L540,442z
	 M540,442"/>
<path class="st1" d="M540,482c4.42,0,8-3.58,8-8v-8c0-4.42-3.58-8-8-8c-4.42,0-8,3.58-8,8v8C532,478.42,535.58,482,540,482L540,482z
	 M540,482"/>
</svg>
