<?xml version="1.0" encoding="iso-8859-1"?>
<!-- Generator: Adobe Illustrator 23.0.1, SVG Export Plug-In . SVG Version: 6.00 Build 0)  -->
<svg version="1.1" id="Capa_1" xmlns="http://www.w3.org/2000/svg" xmlns:xlink="http://www.w3.org/1999/xlink" x="0px" y="0px"
	 viewBox="0 0 792 612" style="enable-background:new 0 0 792 612;" xml:space="preserve">
<path style="fill:#E44D20;" d="M501.243,178.089l21.131-12.79l18.072-2.502l-3.336,12.512l-4.449,12.79
	c0,0-9.175,10.843-11.816,11.399c-2.641,0.556-13.207,7.507-14.319,6.395c-1.112-1.112-14.736-9.731-14.736-9.731l-3.892-9.175
	L501.243,178.089z"/>
<g>
	<g>
		<defs>
			<rect id="SVGID_1_" x="191" y="101" width="409.92" height="410.88"/>
		</defs>
		<clipPath id="SVGID_2_">
			<use xlink:href="#SVGID_1_"  style="overflow:visible;"/>
		</clipPath>
		<path style="clip-path:url(#SVGID_2_);fill:#606060;" d="M598.258,103.665c-3.125-3.122-8.192-3.122-11.317,0l-53.629,53.632
			c-3.25-1.566-6.843-2.398-10.57-2.398c-6.5,0-12.601,2.523-17.18,7.098l-17.39,17.394l-6.555-6.555
			c-8.32-8.32-19.426-12.906-31.262-12.906c-11.843,0-22.937,4.586-31.242,12.914L309.785,282.446l-14.07-14.071
			c-4.781-4.781-11.153-7.414-17.942-7.414c-6.793,0-13.164,2.633-17.941,7.414c-9.891,9.891-9.891,25.989,0,35.879l48.856,48.856
			l-57.985,57.984l-21.715-21.715c-4.191-4.191-9.781-6.5-15.738-6.5c-5.957,0-11.547,2.309-15.742,6.504
			c-8.68,8.676-8.68,22.801,0,31.481l83.551,83.551c4.195,4.191,9.785,6.5,15.742,6.5s11.547-2.309,15.738-6.5
			c8.68-8.68,8.68-22.805,0-31.485l-21.711-21.711l57.984-57.988l48.856,48.855c4.777,4.782,11.148,7.411,17.941,7.411
			c6.789,0,13.161-2.629,17.938-7.411c4.781-4.777,7.414-11.148,7.414-17.937c0-6.793-2.633-13.164-7.414-17.941l-14.07-14.075
			l109.601-109.328c0.004-0.004,0.008-0.004,0.008-0.008c0.008-0.007,0.012-0.011,0.019-0.019
			c8.301-8.297,12.879-19.367,12.887-31.184c0.008-11.847-4.578-22.961-12.906-31.293l-6.555-6.551l17.395-17.394
			c7.492-7.492,9.054-18.695,4.695-27.742l53.637-53.637C601.379,111.856,601.379,106.79,598.258,103.665L598.258,103.665z
			 M301.227,484.247c2.441,2.441,2.441,6.414,0,8.855c-1.172,1.172-2.743,1.816-4.426,1.816c-1.684,0-3.258-0.644-4.426-1.816
			l-83.551-83.551c-2.441-2.441-2.441-6.418-0.004-8.855c1.172-1.172,2.746-1.817,4.43-1.817c1.684,0,3.254,0.645,4.426,1.817
			L301.227,484.247z M279.516,439.907l-17.5-17.5l57.988-57.985l17.496,17.496L279.516,439.907z M525.992,251.586
			c-0.004,4.782-1.176,9.368-3.379,13.43l-12.183-12.183c-3.121-3.122-8.188-3.122-11.313,0c-3.125,3.125-3.125,8.191,0,11.316
			l12.992,12.988l-11.73,11.699l-31.625-31.628c-3.125-3.125-8.192-3.125-11.316,0c-3.122,3.121-3.122,8.187,0,11.312l31.617,31.613
			l-11.727,11.7l-12.949-12.946c-3.121-3.125-8.188-3.125-11.313,0c-3.125,3.125-3.125,8.188,0,11.313L466,323.133l-11.73,11.696
			l-31.571-31.571c-3.125-3.125-8.191-3.125-11.312,0c-3.125,3.125-3.125,8.188,0,11.313l31.558,31.558l-11.73,11.7l-12.887-12.891
			c-3.125-3.125-8.187-3.125-11.312,0c-3.125,3.121-3.125,8.187,0,11.312l12.875,12.875l-11.727,11.7l-31.516-31.516
			c-3.125-3.121-8.187-3.121-11.312,0c-3.125,3.125-3.125,8.191,0,11.316l37.148,37.149c0.004,0.004,0.008,0.008,0.016,0.016
			l19.734,19.734c1.758,1.758,2.723,4.109,2.723,6.629c0.004,2.515-0.965,4.867-2.723,6.625c-1.757,1.758-4.109,2.722-6.625,2.722
			c-2.519,0-4.871-0.964-6.629-2.722L271.148,292.942c-3.656-3.656-3.656-9.602,0-13.254c1.754-1.758,4.11-2.727,6.625-2.727
			c2.516,0,4.872,0.969,6.629,2.727l19.735,19.734c1.5,1.5,3.535,2.344,5.656,2.344h0.004c2.125-0.004,4.16-0.848,5.66-2.351
			l114.984-115.27c5.286-5.297,12.356-8.215,19.914-8.215c7.567,0,14.653,2.918,19.954,8.219l47.464,47.469
			C523.078,236.922,525.996,244.016,525.992,251.586L525.992,251.586z M528.613,185.047l-17.394,17.391l-11.735-11.734
			l17.395-17.391c1.555-1.555,3.637-2.414,5.867-2.414c2.227,0,4.313,0.859,5.867,2.414
			C531.848,176.547,531.848,181.813,528.613,185.047L528.613,185.047z M528.613,185.047"/>
	</g>
	<path style="fill:#E44D20;" d="M451.926,240.379l-0.184-0.183c-3.129-3.117-8.195-3.106-11.312,0.023
		c-3.118,3.133-3.106,8.199,0.023,11.317l0.184,0.183c1.562,1.555,3.605,2.328,5.644,2.328c2.055,0,4.106-0.785,5.672-2.355
		C455.07,248.563,455.059,243.497,451.926,240.379L451.926,240.379z M451.926,240.379"/>
	<path style="fill:#E44D20;" d="M405.887,286.442l-0.184-0.184c-3.125-3.121-8.187-3.121-11.312,0
		c-3.125,3.125-3.125,8.192,0,11.317l0.183,0.183c1.563,1.563,3.61,2.34,5.656,2.34c2.047,0,4.094-0.777,5.657-2.34
		C409.012,294.633,409.012,289.567,405.887,286.442L405.887,286.442z M405.887,286.442"/>
	<path style="fill:#E44D20;" d="M359.844,332.5l-0.184-0.183c-3.121-3.125-8.187-3.133-11.312-0.012
		c-3.129,3.121-3.133,8.188-0.012,11.313l0.184,0.183c1.562,1.567,3.609,2.352,5.66,2.352c2.047,0,4.09-0.781,5.652-2.336
		C362.961,340.696,362.965,335.629,359.844,332.5L359.844,332.5z M359.844,332.5"/>
</g>
<path style="fill:#E44D20;" d="M601.567,100.749l-0.205-0.203c-3.492-3.464-9.147-3.452-12.625,0.026
	c-3.48,3.482-3.467,9.111,0.026,12.576l0.205,0.203c1.743,1.728,4.024,2.587,6.299,2.587c2.294,0,4.583-0.872,6.331-2.617
	C605.076,109.843,605.064,104.214,601.567,100.749L601.567,100.749z M601.567,100.749"/>
</svg>
