<?xml version="1.0" encoding="utf-8"?>
<!-- Generator: Adobe Illustrator 24.3.0, SVG Export Plug-In . SVG Version: 6.00 Build 0)  -->
<svg version="1.1" id="Capa_1" xmlns="http://www.w3.org/2000/svg" xmlns:xlink="http://www.w3.org/1999/xlink" x="0px" y="0px"
	 viewBox="0 0 792 612" style="enable-background:new 0 0 792 612;" xml:space="preserve">
<style type="text/css">
	.st0{fill:#FFFFFF;}
</style>
<g>
	<g>
		<g>
			<g>
				<path class="st0" d="M574.6,209.2H217.4c-4.1,0-7.4,3.3-7.4,7.4V358c0,4.1,3.3,7.4,7.4,7.4h357.2c4.1,0,7.4-3.3,7.4-7.4V216.7
					C582,212.6,578.7,209.2,574.6,209.2z M567.1,350.6H224.8V224.1h342.3V350.6L567.1,350.6z"/>
			</g>
		</g>
		<g>
			<g>
				<path class="st0" d="M585.8,82.8H206.2c-18.5,0-33.5,15-33.5,33.5v379.5c0,18.5,15,33.5,33.5,33.5h379.5
					c18.5,0,33.5-15,33.5-33.5V116.2C619.2,97.8,604.2,82.8,585.8,82.8z M604.3,495.8c0,10.3-8.4,18.6-18.6,18.6H206.2
					c-10.3,0-18.6-8.4-18.6-18.6V116.2c0-10.3,8.4-18.6,18.6-18.6h379.5c10.3,0,18.6,8.4,18.6,18.6V495.8z"/>
			</g>
		</g>
		<g>
			<g>
				<path class="st0" d="M239.7,112.5H210c-4.1,0-7.4,3.3-7.4,7.4v29.7c0,4.1,3.3,7.4,7.4,7.4h29.7c4.1,0,7.4-3.3,7.4-7.4v-29.7
					C247.1,115.8,243.8,112.5,239.7,112.5z M232.2,142.2h-14.9v-14.8h14.9V142.2z"/>
			</g>
		</g>
		<g>
			<g>
				<path class="st0" d="M299.2,112.5h-29.7c-4.1,0-7.4,3.3-7.4,7.4v29.7c0,4.1,3.3,7.4,7.4,7.4h29.7c4.1,0,7.4-3.3,7.4-7.4v-29.7
					C306.7,115.8,303.3,112.5,299.2,112.5z M291.8,142.2h-14.9v-14.8h14.9V142.2z"/>
			</g>
		</g>
		<g>
			<g>
				<path class="st0" d="M358.8,112.5H329c-4.1,0-7.4,3.3-7.4,7.4v29.7c0,4.1,3.3,7.4,7.4,7.4h29.7c4.1,0,7.4-3.3,7.4-7.4v-29.7
					C366.2,115.8,362.9,112.5,358.8,112.5z M351.4,142.2h-14.9v-14.8h14.9V142.2z"/>
			</g>
		</g>
		<g>
			<g>
				<path class="st0" d="M585.8,82.8H206.2c-18.5,0-33.5,15-33.5,33.5v63.2c0,4.1,3.3,7.4,7.4,7.4h431.6c4.1,0,7.4-3.3,7.4-7.4
					v-63.2C619.2,97.8,604.2,82.8,585.8,82.8z M604.3,172.1H187.6v-55.8c0-10.3,8.4-18.6,18.6-18.6h379.5c10.3,0,18.6,8.4,18.6,18.6
					L604.3,172.1L604.3,172.1z"/>
			</g>
		</g>
		<g>
			<g>
				<path class="st0" d="M485.3,387.8H217.4c-4.1,0-7.4,3.3-7.4,7.4s3.3,7.4,7.4,7.4h267.9c4.1,0,7.4-3.3,7.4-7.4
					S489.4,387.8,485.3,387.8z"/>
			</g>
		</g>
		<g>
			<g>
				<path class="st0" d="M574.6,387.8h-52.1c-4.1,0-7.4,3.3-7.4,7.4s3.3,7.4,7.4,7.4h52.1c4.1,0,7.4-3.3,7.4-7.4
					S578.7,387.8,574.6,387.8z"/>
			</g>
		</g>
		<g>
			<g>
				<path class="st0" d="M574.6,417.6H306.7c-4.1,0-7.4,3.3-7.4,7.4s3.3,7.4,7.4,7.4h267.9c4.1,0,7.4-3.3,7.4-7.4
					S578.7,417.6,574.6,417.6z"/>
			</g>
		</g>
		<g>
			<g>
				<path class="st0" d="M269.5,417.6h-52.1c-4.1,0-7.4,3.3-7.4,7.4s3.3,7.4,7.4,7.4h52.1c4.1,0,7.4-3.3,7.4-7.4
					S273.6,417.6,269.5,417.6z"/>
			</g>
		</g>
		<g>
			<g>
				<path class="st0" d="M485.3,447.4H217.4c-4.1,0-7.4,3.3-7.4,7.4s3.3,7.4,7.4,7.4h267.9c4.1,0,7.4-3.3,7.4-7.4
					S489.4,447.4,485.3,447.4z"/>
			</g>
		</g>
		<g>
			<g>
				<path class="st0" d="M574.6,447.4h-52.1c-4.1,0-7.4,3.3-7.4,7.4s3.3,7.4,7.4,7.4h52.1c4.1,0,7.4-3.3,7.4-7.4
					S578.7,447.4,574.6,447.4z"/>
			</g>
		</g>
		<g>
			<g>
				<path class="st0" d="M574.6,477.1H306.7c-4.1,0-7.4,3.3-7.4,7.4c0,4.1,3.3,7.4,7.4,7.4h267.9c4.1,0,7.4-3.3,7.4-7.4
					S578.7,477.1,574.6,477.1z"/>
			</g>
		</g>
		<g>
			<g>
				<path class="st0" d="M269.5,477.1h-52.1c-4.1,0-7.4,3.3-7.4,7.4c0,4.1,3.3,7.4,7.4,7.4h52.1c4.1,0,7.4-3.3,7.4-7.4
					C276.9,480.5,273.6,477.1,269.5,477.1z"/>
			</g>
		</g>
	</g>
	<g>
		<path class="st0" d="M391.6,271c-20.3,0-36.1,21.5-36.1,40c0,23.8,26.2,23.8,36.1,23.8s36.1,0,36.1-23.8
			C427.7,292.5,411.9,271,391.6,271L391.6,271z M391.6,325.8c-22.4,0-27.1-5.9-27.1-14.8c0-13.9,12.5-30.9,27.1-30.9
			s27.1,17,27.1,30.9C418.7,319.9,414.1,325.8,391.6,325.8L391.6,325.8z"/>
		<path class="st0" d="M360.1,273.6c7.4,0,13.5-6.1,13.5-13.5s-6.1-13.5-13.5-13.5c-7.4,0-13.5,6.1-13.5,13.5
			S352.7,273.6,360.1,273.6L360.1,273.6z M360.1,255.5c2.5,0,4.5,2,4.5,4.5s-2,4.5-4.5,4.5c-2.5,0-4.5-2-4.5-4.5
			S357.6,255.5,360.1,255.5L360.1,255.5z"/>
		<path class="st0" d="M409.7,262.7c0,7.4,6.1,13.5,13.5,13.5s13.5-6.1,13.5-13.5c0-7.4-6.1-13.5-13.5-13.5S409.7,255.2,409.7,262.7
			L409.7,262.7z M423.2,258.2c2.5,0,4.5,2,4.5,4.5s-2,4.5-4.5,4.5s-4.5-2-4.5-4.5S420.7,258.2,423.2,258.2L423.2,258.2z"/>
		<path class="st0" d="M391.6,262.7c7.4,0,13.5-6.1,13.5-13.5c0-7.5-6.1-13.5-13.5-13.5c-7.4,0-13.5,6.1-13.5,13.5
			C378.1,256.7,384.2,262.7,391.6,262.7L391.6,262.7z M391.6,244.7c2.5,0,4.5,2,4.5,4.5c0,2.5-2,4.5-4.5,4.5s-4.5-2-4.5-4.5
			C387.1,246.7,389.2,244.7,391.6,244.7L391.6,244.7z"/>
	</g>
</g>
</svg>
