<?xml version="1.0" encoding="utf-8"?>
<!-- Generator: Adobe Illustrator 24.3.0, SVG Export Plug-In . SVG Version: 6.00 Build 0)  -->
<svg version="1.1" id="Capa_1" xmlns="http://www.w3.org/2000/svg" xmlns:xlink="http://www.w3.org/1999/xlink" x="0px" y="0px"
	 viewBox="0 0 792 612" style="enable-background:new 0 0 792 612;" xml:space="preserve">
<style type="text/css">
	.st0{fill:#FFFFFF;}
</style>
<g>
	<g>
		<path class="st0" d="M650.2,197.4c-4.5-27.1-17.4-51.4-38.3-72.2c-52.5-52.3-137.8-52.3-190.3,0c-16.6,16.6-38.7,12.4-51.1,0
			c-52.5-52.3-137.8-52.3-190.3,0c-19.4,19.3-31.9,41.6-37.2,66.4c-4.8,22.4-3.7,46.9,3.2,72.8c19.2,71.8,77.9,136.7,111.1,169
			c48.3,46.9,101.8,83.2,136.2,92.4c0.8,0.2,1.7,0.3,2.6,0.3s1.7-0.1,2.6-0.3c20-5.3,47.3-20.3,77.1-42.2c4.5-3.3,5.4-9.5,2.1-14
			c-3.3-4.5-9.5-5.4-14-2.1c-26.1,19.1-50.5,32.9-67.8,38.2c-20.6-6.3-49.3-23.5-79.2-46.8c2.5-2.7,6-5.6,10.6-8.7
			c12.4-8.4,27.8-37.7,22.6-59.3c-3-12.4-12.1-20.2-25.6-22c-1.3-0.2-2.7-1.6-5.5-4.9c-3.5-4-8.3-9.6-16.3-12.9
			c-11.3-4.7-28.8,3.8-34.7,11.7c-1.3,1.7-2,3.8-2,6c0,3.2-0.7,3.8-3.5,6.2c-3.3,2.9-9.5,8.3-7.9,18.4c0.7,4.5,3,9.7,7.4,16.4
			c-30.5-31-74.3-82.8-93-139.5c3.4,1.8,5.4,3.5,6.6,4.9c2.4,2.8,5.9,5.5,9.9,8.7c8.8,7,20.8,16.6,23.7,28.6
			c5.8,24.1,18.3,27.9,25.5,27.9c0.2,0,0.3,0,0.5,0c11.2-0.3,21.9-10.1,24.6-19.1c1.9-0.8,6.5-1.6,17.2-1.8
			c8.1-0.1,11.8-4.8,13.2-7.6c1.7-3.2,1.9-6.6,2.1-9.3c0.3-4,0.4-4.1,1.5-4.6c2.7-1.3,5.2-2.2,7.7-3.2c6.6-2.5,13.4-5.1,16.4-12.5
			c3-7.5-0.1-15.6-3.8-23.3c-1.9-3.8-4.8-6-7.2-7.8c-3.8-2.8-7-5.2-6-18.4c0.8-9.9-8.9-13.2-20-17.1c-6.5-2.3-15.4-5.3-19.5-8.6
			c-20.4-16.4-35.3-5.2-43.3,0.7c-2.8,2.1-6,4.5-7.7,4.5c-11.8,0.4-32.6-3.7-48.9-9.3c3.5-23.9,14.5-45.2,33-63.6
			c44.7-44.5,117.4-44.5,162.1,0c22.3,22.2,57.1,22.2,79.4,0c44.7-44.5,117.4-44.5,162.1,0c16.1,16,25.8,33.5,30.5,51.5
			c-8.1-3.1-17.2-4.4-25.1-0.1c-3.9,2.1-14.2,7.5-24.6,11.1c-13.5,4.7-17.9,3.2-18.6,2.9c-8.9-13.2-24.4-12.2-34.6-11.5
			c-2.3,0.2-5.6,0.4-7.1,0.2c-11-7.1-25.9-16.3-40.1-11.7c-8.5,2.8-15,10.1-19.4,21.6c-2.5,6.6-10.2,10.2-18.3,13.9
			c-6.1,2.8-12.4,5.8-17,10.5c-4,4.1-7.9,11-5.5,21.2c-1.2,0.9-2.9,1.9-4.2,2.8c-5.7,3.6-13.4,8.5-18.9,16.5
			c-2.5,3.7-4.7,5.8-6.6,7.7c-3.2,3.1-7.9,7.9-6.7,15.8c0.7,4.9,3.4,9.8,9.6,19.7c2.2,3.4,5.7,5.6,9.7,8.1
			c5.2,3.2,11.8,7.2,12.5,12.3c0.7,4.9-3.3,12.4-11.2,21.1c-8.9,9.8-10.3,19.7-9.8,26.3c0.6,8.4,4.6,16.6,10.7,21.7
			c2.7,2.3,7.2,5,13.1,5c3.9,0,8.5-1.2,13.6-4.7c6.1-4.2,11.7-10.6,17.6-17.4c7.4-8.5,15.7-18.2,23-20.2
			c17.6-4.8,24.1-16.6,28.4-24.4c1-1.9,2.6-4.7,3.4-5.4c0.1,0,0.3-0.1,0.5-0.2c7.6-2.7,13-2.4,14.3-1.4c9.8,8.2,19.6,6.3,25.4,5.2
			c1.4-0.3,3-0.6,4.1-0.6c1.1,0.8,2.9,2.3,4.3,3.4c7,5.8,15.8,13.1,25.3,12.4c0.9-0.1,1.8-0.2,2.6-0.4
			c-18.2,25.1-36.8,45.3-48.4,57.1c-3.9,3.9-3.8,10.3,0.1,14.1c3.9,3.9,10.3,3.8,14.1-0.1c33.6-34.3,77.9-87.6,97.6-147.1
			C651.5,248.2,654.2,221.7,650.2,197.4L650.2,197.4z M275.4,390c3.1-2.7,8.6-7.5,10-16.7c2.8-1.9,7.6-3.8,9.7-3.6
			c3.5,1.6,5.8,4.3,8.5,7.4c4,4.7,9.1,10.5,18.1,11.7c6.4,0.8,8,3.8,8.7,6.8c3,12.6-8.1,33.8-14.4,38.1c-6.3,4.3-11.2,8.4-14.9,12.6
			c-4.4-3.7-8.8-7.5-13.2-11.4c3.3-5.7,7.2-14.3-1.4-25c-9.5-11.8-11.8-16.9-12.4-18.8C274.7,390.6,275.1,390.3,275.4,390L275.4,390
			z M210.8,232.3c7.9-0.3,14-4.8,18.9-8.5c7.9-5.9,10.6-7.9,18.9-1.2c6.8,5.5,16.7,8.9,25.5,11.9c2,0.7,4.4,1.5,6.4,2.3
			c0,19.7,9.1,26.5,14.2,30.3c0.5,0.3,1.1,0.8,1.4,1.1c1.4,3,2.1,4.9,2.4,6c-1.2,0.6-3,1.2-4.4,1.8c-2.6,1-5.8,2.2-9.2,3.8
			c-10.7,5.1-12.3,14.2-12.8,19.7c-12.3,0.4-28.9,2.1-31.8,15.9c-0.8,1.9-4.4,5-6,4.8c-0.5,0-3.6-2.4-6-12.6
			c-4.5-18.8-20.3-31.3-30.7-39.6c-2.9-2.3-6-4.8-7.2-6.1c-5.8-6.7-14.7-11.8-28-15.8c-1.4-7.7-2.2-15.2-2.4-22.5
			C177.7,229.2,197.9,232.8,210.8,232.3L210.8,232.3z M601.4,317.6C601.4,317.6,601.4,317.6,601.4,317.6c-12.5,0-19.8,7.6-24.2,12.1
			c-0.8,0.9-2,2.1-2.8,2.8c-2.8-1.1-8-5.4-10.7-7.6c-4.7-3.9-8.1-6.7-12.2-7.6c-4.8-1-9.2-0.2-12.7,0.5c-5.2,1-6.5,1-8.8-0.9
			c-10.4-8.8-25.7-5.1-33.9-2.2l0,0c-7.9,2.5-11.6,9.3-14.6,14.8c-3.6,6.5-6.7,12.2-16.2,14.8c-13.2,3.6-23.6,15.7-32.9,26.4
			c-4.7,5.5-12.6,14.5-15.9,15.2c-0.1-0.1-0.2-0.1-0.4-0.3c-1.5-1.3-3.3-4-3.6-7.7c-0.3-3.9,1.3-7.8,4.7-11.5
			c12.5-13.8,17.8-26,16.2-37.4c-2.1-14.4-14.5-22-21.9-26.5c-1.2-0.8-2.9-1.8-3.7-2.3c-1.5-2.5-4.3-6.9-5.6-9.6
			c0.1-0.1,0.2-0.2,0.3-0.3c2.2-2.2,5.5-5.4,9-10.6c3.2-4.6,8.4-7.9,13.1-10.9c3.5-2.2,6.8-4.3,9.3-6.9c6.2-6.3,5.2-12.9,4-16.2
			c-1-2.8-0.5-3.4,0.1-4c1.9-2,6.5-4.2,11-6.2c10.3-4.8,23.1-10.7,28.5-25c2.1-5.5,4.6-8.9,7-9.7c5.4-1.8,17.3,5.8,23.7,9.9
			c5.3,3.4,11.7,3,18.5,2.5c8.4-0.6,14.5-0.7,16.7,2.7c12.1,18.3,44.4,6,69.3-7.6c2.2-1.2,9.9,0.8,19.1,7
			C633.3,250.1,619.6,285.9,601.4,317.6L601.4,317.6z"/>
		<path class="st0" d="M371.6,179.6c-1.7-0.6-4-1.6-6.4-2.7c-8.2-3.6-16-7.1-22.9-5.6c-5,1-11.4,2.1-17,1.2
			c-11.7-1.8-22,4.5-24.9,15.3c-2.7,10,2,20,11.4,23.8c1.7,0.8,4.8,4.7,5.1,6.4c0.2,2,4.8,21.4,14.4,29c3.6,2.8,7.1,3.6,9.8,3.6
			c0.6,0,1.2,0,1.7-0.1c9.9-1.2,28.4-16.7,36.7-33.5c5.1-6.7,6.8-14.9,4.6-22.8C382.1,187.1,377.5,181.7,371.6,179.6z M363.3,205.2
			c-0.6,0.7-1,1.4-1.4,2.2c-4.7,10.2-14.5,18.7-19.7,22c-2.2-3.6-4.8-10.7-5.5-14c-1.1-8.5-9-18.8-17.1-22.3c0-0.2,0.1-0.4,0.3-0.6
			c0.4-0.4,1.3-0.5,2.4-0.3c8.5,1.3,17,0,23.5-1.3c2.3,0.2,8.1,2.8,11.3,4.2c2.5,1.1,5,2.2,7.2,3C364.8,199.1,366,202,363.3,205.2
			L363.3,205.2z"/>
		<path class="st0" d="M504.8,437.3L504.8,437.3c-5.5,0-10,4.5-10,10c0,5.5,4.5,10,10,10s10-4.5,10-10
			C514.8,441.8,510.3,437.3,504.8,437.3z"/>
	</g>
</g>
</svg>
